<svg xmlns="http://www.w3.org/2000/svg" width="16" height="16"><style type="text/css">.icon-canvas-transparent{opacity:0;fill:#F6F6F6;} .icon-white{fill:#FFFFFF;} .icon-vso-bg{fill:#656565;}</style><path class="icon-canvas-transparent" d="M16 16h-16v-16h16v16z" id="canvas"/><path class="icon-white" d="M15.998 7.5c0 4.136-3.363 7.5-7.5 7.5-2.004 0-3.885-.78-5.301-2.197l-3.197-3.389v-4.828l1.198 1.198c.779-3.311 3.755-5.784 7.3-5.784 4.137 0 7.5 3.364 7.5 7.5z" id="outline"/><path class="icon-vso-bg" d="M8.498 1c-3.59 0-6.498 2.91-6.498 6.5l.025.5h-.025l-2-2v2l2.6 3 2.4-3v-2l-1.811 2 .01-.202.005-.329c0-2.896 2.354-5.25 5.249-5.25 2.895 0 5.248 2.354 5.248 5.25s-2.353 5.251-5.248 5.251c-1.396 0-2.713-.549-3.709-1.543l-.84.918c1.174 1.176 2.799 1.905 4.594 1.905 3.59 0 6.5-2.91 6.5-6.5s-2.91-6.5-6.5-6.5zm3.502 6v1h-4v-5h1v4h3z" id="iconBg"/></svg>